name ./resultDataOpenSim/trcMotMarkerGrf/sub10/grf-05-05.mot
datacolumns 19
datarows 17
range 1.54800000 1.61200000
endheader

                time	     ground_force_vx	     ground_force_vy	     ground_force_vz	     ground_force_px	     ground_force_py	     ground_force_pz	   l_ground_force_vx	   l_ground_force_vy	   l_ground_force_vz	   l_ground_force_px	   l_ground_force_py	   l_ground_force_pz	     ground_torque_x	     ground_torque_y	     ground_torque_z	   l_ground_torque_x	   l_ground_torque_y	   l_ground_torque_z	
          1.54800000	        -34.31393589	        423.49566100	        -25.80284826	          0.86204858	          0.00000000	          0.05300772	          0.00000000	          0.00000000	          0.00000000	          0.00000000	          0.00000000	          0.00000000	          0.00000000	          0.17053581	          0.00000000	          0.00000000	          0.00000000	          0.00000000	
          1.55200000	        -31.18701789	        415.20654757	        -24.96672424	          0.86446481	          0.00000000	          0.05302664	          0.00000000	          0.00000000	          0.00000000	          0.00000000	          0.00000000	          0.00000000	          0.00000000	          0.16203543	          0.00000000	          0.00000000	          0.00000000	          0.00000000	
          1.55600000	        -29.14640447	        407.76216911	        -23.85421574	          0.86693415	          0.00000000	          0.05298862	          0.00000000	          0.00000000	          0.00000000	          0.00000000	          0.00000000	          0.00000000	          0.00000000	          0.16961809	          0.00000000	          0.00000000	          0.00000000	          0.00000000	
          1.56000000	        -28.37075837	        401.16277021	        -22.54792815	          0.86946538	          0.00000000	          0.05289138	          0.00000000	          0.00000000	          0.00000000	          0.00000000	          0.00000000	          0.00000000	          0.00000000	          0.20237405	          0.00000000	          0.00000000	          0.00000000	          0.00000000	
          1.56400000	        -28.72112523	        395.38606129	        -21.14546657	          0.87201752	          0.00000000	          0.05274819	          0.00000000	          0.00000000	          0.00000000	          0.00000000	          0.00000000	          0.00000000	          0.00000000	          0.26365751	          0.00000000	          0.00000000	          0.00000000	          0.00000000	
          1.56800000	        -29.78644676	        390.40853886	        -19.74400182	          0.87451604	          0.00000000	          0.05258072	          0.00000000	          0.00000000	          0.00000000	          0.00000000	          0.00000000	          0.00000000	          0.00000000	          0.35053183	          0.00000000	          0.00000000	          0.00000000	          0.00000000	
          1.57200000	        -30.99417761	        386.21335159	        -18.42666642	          0.87687499	          0.00000000	          0.05240889	          0.00000000	          0.00000000	          0.00000000	          0.00000000	          0.00000000	          0.00000000	          0.00000000	          0.45526978	          0.00000000	          0.00000000	          0.00000000	          0.00000000	
          1.57600000	        -31.75830593	        382.78583545	        -17.25548512	          0.87898697	          0.00000000	          0.05224863	          0.00000000	          0.00000000	          0.00000000	          0.00000000	          0.00000000	          0.00000000	          0.00000000	          0.56808627	          0.00000000	          0.00000000	          0.00000000	          0.00000000	
          1.58000000	        -31.62996958	        380.10582062	        -16.27201354	          0.88075362	          0.00000000	          0.05211650	          0.00000000	          0.00000000	          0.00000000	          0.00000000	          0.00000000	          0.00000000	          0.00000000	          0.67987247	          0.00000000	          0.00000000	          0.00000000	          0.00000000	
          1.58400000	        -30.40875714	        378.14344896	        -15.50250832	          0.88212708	          0.00000000	          0.05202544	          0.00000000	          0.00000000	          0.00000000	          0.00000000	          0.00000000	          0.00000000	          0.00000000	          0.78398675	          0.00000000	          0.00000000	          0.00000000	          0.00000000	
          1.58800000	        -28.18422982	        376.86072465	        -14.96309205	          0.88311239	          0.00000000	          0.05197858	          0.00000000	          0.00000000	          0.00000000	          0.00000000	          0.00000000	          0.00000000	          0.00000000	          0.87685211	          0.00000000	          0.00000000	          0.00000000	          0.00000000	
          1.59200000	        -25.29810341	        376.22214901	        -14.66044290	          0.88378017	          0.00000000	          0.05197325	          0.00000000	          0.00000000	          0.00000000	          0.00000000	          0.00000000	          0.00000000	          0.00000000	          0.95770024	          0.00000000	          0.00000000	          0.00000000	          0.00000000	
          1.59600000	        -22.24126274	        376.20633467	        -14.58845152	          0.88425163	          0.00000000	          0.05200617	          0.00000000	          0.00000000	          0.00000000	          0.00000000	          0.00000000	          0.00000000	          0.00000000	          1.02792508	          0.00000000	          0.00000000	          0.00000000	          0.00000000	
          1.60000000	        -19.51744536	        376.79891962	        -14.72409917	          0.88464165	          0.00000000	          0.05207293	          0.00000000	          0.00000000	          0.00000000	          0.00000000	          0.00000000	          0.00000000	          0.00000000	          1.09024940	          0.00000000	          0.00000000	          0.00000000	          0.00000000	
          1.60400000	        -17.50824299	        377.96904025	        -15.02441681	          0.88504279	          0.00000000	          0.05216432	          0.00000000	          0.00000000	          0.00000000	          0.00000000	          0.00000000	          0.00000000	          0.00000000	          1.14767637	          0.00000000	          0.00000000	          0.00000000	          0.00000000	
          1.60800000	        -16.37705915	        379.65414391	        -15.43072969	          0.88548224	          0.00000000	          0.05228136	          0.00000000	          0.00000000	          0.00000000	          0.00000000	          0.00000000	          0.00000000	          0.00000000	          1.20229652	          0.00000000	          0.00000000	          0.00000000	          0.00000000	
          1.61200000	        -16.03613883	        381.77178881	        -15.88238161	          0.88593844	          0.00000000	          0.05243278	          0.00000000	          0.00000000	          0.00000000	          0.00000000	          0.00000000	          0.00000000	          0.00000000	          1.25436181	          0.00000000	          0.00000000	          0.00000000	          0.00000000	
